#define xbm_keyboard_width 160
#define xbm_keyboard_height 60
static unsigned char xbm_keyboard_bits[] = {
  0xff, 0xff, 0xff, 0xff, 0xff, 0xff, 0xff, 0xff, 0xff, 0xff, 0xff, 0xff,
  0xff, 0xff, 0xff, 0xff, 0xff, 0xff, 0xff, 0xff, 0x01, 0x04, 0x10, 0x80,
  0x00, 0x02, 0x08, 0x20, 0x80, 0x00, 0x02, 0x08, 0x20, 0x80, 0x00, 0x02,
  0x04, 0x10, 0x40, 0x80, 0x01, 0x04, 0x10, 0x80, 0x00, 0x02, 0x08, 0x20,
  0x80, 0x00, 0x02, 0x08, 0x20, 0x80, 0x00, 0x02, 0x04, 0x10, 0x40, 0x80,
  0x01, 0x04, 0x10, 0x80, 0x00, 0x02, 0x08, 0x20, 0x80, 0x00, 0x02, 0x08,
  0x20, 0x80, 0x00, 0x02, 0x04, 0x10, 0x40, 0x80, 0x19, 0xc4, 0x10, 0x87,
  0x20, 0x82, 0x09, 0x26, 0x9c, 0x18, 0x62, 0x08, 0x23, 0x80, 0x10, 0x82,
  0x04, 0x10, 0x40, 0x80, 0x11, 0x24, 0x11, 0x88, 0x30, 0x42, 0x08, 0x21,
  0x92, 0x24, 0x92, 0x88, 0x24, 0x80, 0x10, 0x82, 0x04, 0x10, 0x40, 0x80,
  0x11, 0x04, 0x11, 0x84, 0x30, 0xc2, 0x88, 0x23, 0x88, 0x24, 0x92, 0x88,
  0x24, 0x80, 0x08, 0x02, 0x05, 0x10, 0x40, 0x90, 0x11, 0x04, 0x11, 0x86,
  0x28, 0x02, 0x89, 0x24, 0x88, 0x18, 0x92, 0x88, 0x24, 0x80, 0x08, 0x02,
  0x05, 0x10, 0x40, 0x80, 0x11, 0x84, 0x10, 0x88, 0x78, 0x02, 0x89, 0x24,
  0x88, 0x24, 0xe2, 0x88, 0x24, 0x80, 0x08, 0x02, 0x05, 0x10, 0x47, 0x80,
  0x11, 0x44, 0x11, 0x88, 0x20, 0x02, 0x89, 0x24, 0x84, 0x24, 0x42, 0x88,
  0x24, 0x8e, 0x08, 0x02, 0x05, 0x10, 0x40, 0x80, 0x39, 0xe4, 0x11, 0x87,
  0x20, 0xe2, 0x08, 0x23, 0x84, 0x18, 0x32, 0x08, 0x23, 0x8e, 0x08, 0x02,
  0x85, 0x11, 0x40, 0x90, 0x01, 0x04, 0x10, 0x80, 0x00, 0x02, 0x08, 0x20,
  0x80, 0x00, 0x02, 0x08, 0x20, 0x8c, 0x10, 0x82, 0x84, 0x11, 0x40, 0x80,
  0x01, 0x04, 0x10, 0x80, 0x00, 0x02, 0x08, 0x20, 0x80, 0x00, 0x02, 0x08,
  0x20, 0x86, 0x00, 0x02, 0x04, 0x10, 0x40, 0x80, 0x01, 0x04, 0x10, 0x80,
  0x00, 0x02, 0x08, 0x20, 0x80, 0x00, 0x02, 0x08, 0x20, 0x80, 0x00, 0x02,
  0x04, 0x10, 0x40, 0x80, 0xff, 0xff, 0xff, 0xff, 0xff, 0xff, 0xff, 0xff,
  0xff, 0xff, 0xff, 0xff, 0xff, 0xff, 0xff, 0xff, 0xff, 0xff, 0xff, 0xff,
  0x01, 0x80, 0x00, 0x40, 0x00, 0x20, 0x00, 0x08, 0x00, 0x02, 0x00, 0x01,
  0x80, 0x00, 0x20, 0x00, 0x08, 0x00, 0x02, 0x80, 0x01, 0x80, 0x00, 0x40,
  0x00, 0x20, 0x00, 0x08, 0x00, 0x02, 0x00, 0x01, 0x80, 0x00, 0x20, 0x00,
  0x08, 0x00, 0x02, 0x80, 0x01, 0x88, 0xe0, 0x40, 0x6c, 0x27, 0xfc, 0x08,
  0x0f, 0x82, 0x0f, 0xe1, 0x8e, 0xb8, 0x23, 0x70, 0x08, 0x0e, 0x82, 0x87,
  0x01, 0x88, 0x10, 0x41, 0x48, 0x22, 0x88, 0x08, 0x12, 0x82, 0x0a, 0x41,
  0x84, 0x10, 0x21, 0x20, 0x08, 0x11, 0x02, 0x89, 0x01, 0x88, 0x10, 0x41,
  0x48, 0x22, 0x28, 0x08, 0x12, 0x02, 0x02, 0x81, 0x82, 0x10, 0x21, 0x20,
  0x08, 0x11, 0x02, 0x89, 0x01, 0x88, 0x10, 0x41, 0x68, 0x22, 0x38, 0x08,
  0x0e, 0x02, 0x02, 0x81, 0x82, 0x10, 0x21, 0x20, 0x08, 0x11, 0x02, 0x89,
  0x21, 0x88, 0x10, 0x41, 0xa8, 0x22, 0x28, 0x08, 0x0a, 0x02, 0x02, 0x01,
  0x81, 0x10, 0x21, 0x20, 0x08, 0x11, 0x02, 0x87, 0x31, 0x88, 0x10, 0x41,
  0x10, 0x21, 0x88, 0x08, 0x12, 0x02, 0x02, 0x01, 0x81, 0x10, 0x21, 0x20,
  0x08, 0x11, 0x02, 0x81, 0x39, 0x88, 0xe0, 0x40, 0x10, 0x21, 0xfc, 0x08,
  0x37, 0x02, 0x07, 0x81, 0x83, 0xe0, 0x20, 0x70, 0x08, 0x0e, 0x82, 0x83,
  0xfd, 0x8f, 0xc0, 0x40, 0x00, 0x20, 0x00, 0x08, 0x00, 0x02, 0x00, 0x01,
  0x80, 0x00, 0x20, 0x00, 0x08, 0x00, 0x02, 0x80, 0x39, 0x80, 0x00, 0x41,
  0x00, 0x20, 0x00, 0x08, 0x00, 0x02, 0x00, 0x01, 0x80, 0x00, 0x20, 0x00,
  0x08, 0x00, 0x02, 0x80, 0x31, 0x80, 0x00, 0x40, 0x00, 0x20, 0x00, 0x08,
  0x00, 0x02, 0x00, 0x01, 0x80, 0x00, 0x20, 0x00, 0x08, 0x00, 0x02, 0x80,
  0x21, 0x80, 0x00, 0x40, 0x00, 0x20, 0x00, 0x08, 0x00, 0x02, 0x00, 0x01,
  0x80, 0x00, 0x20, 0x00, 0x08, 0x00, 0x02, 0x80, 0x01, 0x80, 0x00, 0x40,
  0x00, 0x20, 0x00, 0x08, 0x00, 0x02, 0x00, 0x01, 0x80, 0x00, 0x20, 0x00,
  0x08, 0x00, 0x02, 0x80, 0xff, 0xff, 0xff, 0xff, 0xff, 0xff, 0xff, 0xff,
  0xff, 0xff, 0xff, 0xff, 0xff, 0xff, 0xff, 0xff, 0xff, 0xff, 0xff, 0xff,
  0x01, 0x80, 0x00, 0x40, 0x00, 0x20, 0x00, 0x08, 0x00, 0x02, 0x00, 0x01,
  0x80, 0x00, 0x20, 0x00, 0x08, 0x00, 0x02, 0x80, 0x01, 0x80, 0x00, 0x40,
  0x00, 0x20, 0x00, 0x08, 0x00, 0x02, 0x00, 0x01, 0x80, 0x00, 0x20, 0x00,
  0x08, 0x00, 0x02, 0x80, 0x41, 0x82, 0x00, 0x42, 0x40, 0x20, 0x38, 0x08,
  0x0f, 0x82, 0x0f, 0x81, 0x85, 0xb8, 0x23, 0x70, 0x88, 0x1b, 0x82, 0x83,
  0xf9, 0x8f, 0xfc, 0x41, 0x40, 0x20, 0x24, 0x08, 0x12, 0x02, 0x09, 0x41,
  0x86, 0x10, 0x21, 0x20, 0x08, 0x09, 0x02, 0x81, 0x81, 0x80, 0x40, 0x40,
  0xa0, 0x20, 0x04, 0x08, 0x22, 0x02, 0x05, 0x41, 0x80, 0x10, 0x21, 0x20,
  0x08, 0x05, 0x02, 0x81, 0x81, 0x80, 0x40, 0x42, 0xa0, 0x20, 0x18, 0x08,
  0x22, 0x02, 0x07, 0x41, 0x8e, 0xf0, 0x21, 0x20, 0x08, 0x07, 0x02, 0x81,
  0xf1, 0x83, 0xf8, 0x41, 0xe0, 0x20, 0x20, 0x08, 0x22, 0x02, 0x05, 0x41,
  0x84, 0x10, 0x21, 0x20, 0x08, 0x09, 0x02, 0x81, 0x91, 0x82, 0x40, 0x44,
  0x10, 0x21, 0x24, 0x08, 0x12, 0x02, 0x01, 0x41, 0x84, 0x10, 0x21, 0x20,
  0x08, 0x11, 0x02, 0x89, 0xf9, 0x8f, 0xfc, 0x43, 0x38, 0x23, 0x1c, 0x08,
  0x0f, 0x82, 0x03, 0x81, 0x83, 0xb8, 0x23, 0x10, 0x88, 0x3b, 0x82, 0x8f,
  0x41, 0x81, 0x40, 0x40, 0x00, 0x20, 0x00, 0x08, 0x00, 0x02, 0x00, 0x01,
  0x80, 0x00, 0x20, 0x00, 0x08, 0x00, 0x02, 0x80, 0x21, 0x82, 0x40, 0x40,
  0x00, 0x20, 0x00, 0x08, 0x00, 0x02, 0x00, 0x01, 0x80, 0x00, 0x20, 0x00,
  0x08, 0x00, 0x02, 0x80, 0x11, 0x8c, 0x60, 0x40, 0x00, 0x20, 0x00, 0x08,
  0x00, 0x02, 0x00, 0x01, 0x80, 0x00, 0x20, 0x00, 0x08, 0x00, 0x02, 0x80,
  0x01, 0x80, 0x00, 0x40, 0x00, 0x20, 0x00, 0x08, 0x00, 0x02, 0x00, 0x01,
  0x80, 0x00, 0x20, 0x00, 0x08, 0x00, 0x02, 0x80, 0x01, 0x80, 0x00, 0x40,
  0x00, 0x20, 0x00, 0x08, 0x00, 0x02, 0x00, 0x01, 0x80, 0x00, 0x20, 0x00,
  0x08, 0x00, 0x02, 0x80, 0xff, 0xff, 0xff, 0xff, 0xff, 0xff, 0xff, 0xff,
  0xff, 0xff, 0xff, 0xff, 0xff, 0xff, 0xff, 0xff, 0xff, 0xff, 0xff, 0xff,
  0x01, 0x80, 0x00, 0x40, 0x04, 0x20, 0x00, 0x08, 0x00, 0x02, 0x00, 0x01,
  0x80, 0x00, 0x20, 0x00, 0x08, 0x00, 0x02, 0x80, 0x21, 0x84, 0x00, 0x40,
  0x04, 0x20, 0x00, 0x08, 0x00, 0x02, 0x00, 0x01, 0x80, 0x00, 0x20, 0x00,
  0x08, 0x00, 0x02, 0x80, 0x11, 0x82, 0x48, 0x44, 0x1f, 0x20, 0x78, 0x08,
  0x37, 0x02, 0x0e, 0xe1, 0x8e, 0xf0, 0x20, 0xcc, 0x89, 0x63, 0x02, 0x81,
  0x31, 0x8f, 0x88, 0x42, 0x04, 0x20, 0x28, 0x08, 0x12, 0x02, 0x09, 0x41,
  0x84, 0x20, 0x21, 0x88, 0x08, 0x33, 0x02, 0x80, 0x49, 0x84, 0x18, 0x41,
  0x0a, 0x20, 0x20, 0x08, 0x12, 0x02, 0x01, 0x41, 0x84, 0x20, 0x21, 0x98,
  0x08, 0x35, 0xf2, 0x9f, 0x21, 0x82, 0xec, 0x47, 0x11, 0x20, 0x10, 0x08,
  0x0c, 0x02, 0x01, 0x81, 0x82, 0xe0, 0x20, 0xa8, 0x08, 0x2d, 0x4a, 0xa4,
  0x11, 0x82, 0x58, 0xc2, 0x20, 0x22, 0x08, 0x08, 0x0c, 0x02, 0x01, 0x81,
  0x82, 0x20, 0x21, 0xc8, 0x08, 0x29, 0x22, 0x98, 0xd9, 0x87, 0x4c, 0x42,
  0x00, 0x22, 0x48, 0x08, 0x12, 0x02, 0x09, 0x81, 0x82, 0x20, 0x21, 0x88,
  0x08, 0x29, 0xd2, 0x87, 0x95, 0x82, 0xe8, 0x47, 0x00, 0x27, 0x7c, 0x08,
  0x37, 0x02, 0x06, 0x01, 0x81, 0xf0, 0x20, 0x9c, 0x88, 0x6b, 0x02, 0x81,
  0x11, 0x82, 0x48, 0x42, 0x80, 0x2a, 0x00, 0x08, 0x00, 0x02, 0x00, 0x01,
  0x80, 0x00, 0x20, 0x00, 0x08, 0x00, 0x02, 0x81, 0x11, 0x82, 0x28, 0x42,
  0x00, 0x22, 0x00, 0x08, 0x00, 0x02, 0x00, 0x01, 0x80, 0x00, 0x20, 0x00,
  0x08, 0x00, 0x02, 0x81, 0x11, 0x83, 0x0c, 0x42, 0x00, 0x22, 0x00, 0x08,
  0x00, 0x02, 0x00, 0x01, 0x80, 0x00, 0x20, 0x00, 0x08, 0x00, 0xe2, 0x8f,
  0x01, 0x80, 0x00, 0x40, 0x00, 0x23, 0x00, 0x08, 0x00, 0x02, 0x00, 0x01,
  0x80, 0x00, 0x20, 0x00, 0x08, 0x00, 0x02, 0x80, 0x01, 0x80, 0x00, 0x40,
  0x00, 0x20, 0x00, 0x08, 0x00, 0x02, 0x00, 0x01, 0x80, 0x00, 0x20, 0x00,
  0x08, 0x00, 0x02, 0x80, 0xff, 0xff, 0xff, 0xff, 0xff, 0xff, 0xff, 0xff,
  0xff, 0xff, 0xff, 0xff, 0xff, 0xff, 0xff, 0xff, 0xff, 0xff, 0xff, 0xff};
